# xmcd
#
# Track frame offsets:
#	150
#	16836
#	28132
#	40796
#	64946
#	80648
#	91070
#	104737
#	117575
#	133857
#	146341
#	161201
#	174390
#	187225
#	201528
#	216278
#	230275
#	243935
#	255161
#	271694
#
# Disc length: 3771 seconds
#
# Revision: 0
# Processed by: cddbd v1.4PL0 Copyright (c) Steve Scherf et al.
# Submitted via: dBpowerAMP V4.0
#
DISCID=210eb914
DTITLE=Vários Artistas - Bailão bom D+
DYEAR=1900
DGENRE=Música Gaúcha
TTITLE0=Brasileira
TTITLE1=Vestido Colado
TTITLE2=Brasil Alegria
TTITLE3=Pode Voltar Paixão
TTITLE4=Magoado Contigo
TTITLE5=Dia de Baile
TTITLE6=quero ter voc~e
TTITLE7=O Correntino
TTITLE8=Escuta
TTITLE9=Compasso da Sanfona
TTITLE10=Chutando a Tristeza
TTITLE11=Paraguaia Linda
TTITLE12=Corpo de Papel
TTITLE13=Da Lida Pro Fandango
TTITLE14=Noite Triste
TTITLE15=Sózinho no Meu Rancho
TTITLE16=Sou Fandangueiro
TTITLE17=Súplicas
TTITLE18=A Solidão
TTITLE19=Bom de Braço
EXTD=
EXTT0=
EXTT1=
EXTT2=
EXTT3=
EXTT4=
EXTT5=
EXTT6=
EXTT7=
EXTT8=
EXTT9=
EXTT10=
EXTT11=
EXTT12=
EXTT13=
EXTT14=
EXTT15=
EXTT16=
EXTT17=
EXTT18=
EXTT19=
PLAYORDER=
